# xmcd
#
# Track frame offsets:
#	150
#	39895
#	91447
#	110826
#	126118
#	185262
#	207928
#	300302
#	350538
#	352958
#
# Disc length: 4738 seconds
#
# Revision: 3
# Processed by: cddbd v1.5.2PL0 Copyright (c) Steve Scherf et al.
# Submitted via: audiograbber 1.83.01
#
DISCID=8712800a
DTITLE=Tangerine Dream - The Virgin Years 1974-1978 [CD 3) [remastered]
DYEAR=2011
DGENRE=Electronic
TTITLE0=Stratosfear [side two] - 3 am At The Border Of The Marsh From Okefenoke
TTITLE0=e
TTITLE1=Stratosfear [side two] - Invisible Limits
TTITLE2=Stratosfear [bonus tracks] - Stratosfear [7" single edit]
TTITLE3=Stratosfear [bonus tracks] - The Big Sleep In Search Of Hades [7" singl
TTITLE3=e edit]
TTITLE4=Cyclone - Bent Cold Sidewalk
TTITLE5=Cyclone - Rising Runner Missed By Endless Sender
TTITLE6=Cyclone - Madrigal Meridian
TTITLE7=Cyclone [bonus track] - Madrigal Meridian [excerpt]
TTITLE8=Phaedra Radio Advert [bonus track]
TTITLE9=Rubycon Radio Advert [bonus track]
EXTD=
EXTT0=
EXTT1=
EXTT2=
EXTT3=
EXTT4=
EXTT5=
EXTT6=
EXTT7=
EXTT8=
EXTT9=
PLAYORDER=
